<?xml version="1.0" encoding="utf-8"?>
<!-- Svg Vector Icons : http://www.onlinewebfonts.com/icon -->
<!DOCTYPE svg PUBLIC "-//W3C//DTD SVG 1.1//EN" "http://www.w3.org/Graphics/SVG/1.1/DTD/svg11.dtd">
<svg version="1.1" xmlns="http://www.w3.org/2000/svg" xmlns:xlink="http://www.w3.org/1999/xlink" x="0px" y="0px" viewBox="0 0 1000 1000" enable-background="new 0 0 1000 1000" xml:space="preserve">
<metadata> Svg Vector Icons : http://www.onlinewebfonts.com/icon </metadata>
<g><path d="M990,500c0,94-201.2,295.5-488.9,295.5C220.9,795.5,10.7,597,10.7,500c0-97,210.2-295.5,488.9-295.5C790.3,204.5,990,401.5,990,500L990,500L990,500z M501.1,258.3c-129.7,0-235.5,107.4-235.5,241.8c0,134.3,105.8,241.7,235.5,241.7c129.7,0,235.5-107.4,235.5-241.7C736.6,367.2,630.8,258.3,501.1,258.3L501.1,258.3L501.1,258.3z M501.1,346.3c-83.5,0-150.5,68.6-150.5,153.7c0,85.1,67.1,153.7,150.5,153.7c83.5,0,150.5-68.7,150.5-153.7C650.2,414.9,583.1,346.3,501.1,346.3L501.1,346.3L501.1,346.3z"/><path d="M58.8,245.6l915.2,443c13,6.3,18.4,21.8,12.1,34.8l-11.4,23.5c-6.3,13-21.9,18.4-34.8,12.1l-915.2-443c-13-6.3-18.4-21.9-12.1-34.8L24,257.8C30.2,244.8,45.8,239.4,58.8,245.6z"/></g>
</svg>