<?xml version="1.0" encoding="utf-8"?>
<!-- Svg Vector Icons : http://www.onlinewebfonts.com/icon -->
<!DOCTYPE svg PUBLIC "-//W3C//DTD SVG 1.1//EN" "http://www.w3.org/Graphics/SVG/1.1/DTD/svg11.dtd">
<svg version="1.1" xmlns="http://www.w3.org/2000/svg" xmlns:xlink="http://www.w3.org/1999/xlink" x="0px" y="0px" viewBox="0 0 1000 1000" enable-background="new 0 0 1000 1000" xml:space="preserve">
<metadata> Svg Vector Icons : http://www.onlinewebfonts.com/icon </metadata>
<g><path d="M441.2,771.9H213.4c-24.5,0-46.5-19.6-46.5-46.5V500V274.6c0-24.5,19.6-46.5,46.5-46.5h227.9c24.5,0,46.6-19.6,46.6-46.6v-66.1c0-24.5-19.6-46.6-46.6-46.6H54.1C29.6,68.8,10,90.8,10,115.3V500v384.7c0,24.5,19.6,46.6,46.6,46.6h387.1c24.5,0,46.5-19.6,46.5-46.6v-68.6C487.8,791.5,468.2,771.9,441.2,771.9z"/><path d="M975.3,463.3L688.7,176.6c-29.4-29.4-78.4-7.4-78.4,31.9V326c0,24.5-19.6,46.5-46.5,46.5H321.2c-24.5,0-46.5,19.6-46.5,46.6V500v80.9c0,24.5,19.6,46.6,46.5,46.6h242.5c24.5,0,46.5,19.6,46.5,46.5v117.6c0,41.7,49,61.3,78.4,31.9l286.6-286.7c9.8-9.8,14.7-24.5,14.7-36.7S987.6,473,975.3,463.3z"/></g>
</svg>