<?xml version="1.0" encoding="utf-8"?>
<!-- Svg Vector Icons : http://www.onlinewebfonts.com/icon -->
<!DOCTYPE svg PUBLIC "-//W3C//DTD SVG 1.1//EN" "http://www.w3.org/Graphics/SVG/1.1/DTD/svg11.dtd">
<svg version="1.1" xmlns="http://www.w3.org/2000/svg" xmlns:xlink="http://www.w3.org/1999/xlink" x="0px" y="0px" viewBox="0 0 1000 1000" enable-background="new 0 0 1000 1000" xml:space="preserve">
<metadata> Svg Vector Icons : http://www.onlinewebfonts.com/icon </metadata>
<g><path d="M990,498.5c0,94.9-202.1,297.1-490,297.1c-281.8,0-490-199.1-490-297.1s211.3-294,490-294C790.9,204.5,990,400.5,990,498.5L990,498.5z M500,256.5c-131.7,0-235.8,107.2-235.8,241.9S371.4,740.4,500,740.4c131.7,0,235.8-107.2,235.8-241.9S631.7,256.5,500,256.5L500,256.5z M500,345.3c-82.7,0-150.1,67.4-150.1,153.1S417.3,651.6,500,651.6s150.1-67.4,150.1-153.1S582.7,345.3,500,345.3L500,345.3z"/></g>
</svg>